<mxfile host="app.diagrams.net" modified="2023-06-21T04:32:45.998Z" agent="Mozilla/5.0 (Windows NT 10.0; Win64; x64) AppleWebKit/537.36 (KHTML, like Gecko) Chrome/114.0.0.0 Safari/537.36" version="21.4.0" etag="fYyzYSVthaA4U9fBCvHM" type="github">
  <diagram name="Halaman-1" id="upBjpdyuoCWtnrYojF4L">
    <mxGraphModel>
      <root>
        <mxCell id="0" />
        <mxCell id="1" parent="0" />
      </root>
    </mxGraphModel>
  </diagram>
</mxfile>
